<svg width="23" height="9" viewBox="0 0 23 9" fill="none" xmlns="http://www.w3.org/2000/svg">
<path d="M0.714283 8.06916C0.483629 8.06916 0.305058 8.00592 0.178571 7.87943C0.0595236 7.7455 0 7.56321 0 7.33256V0.747766C0 0.509671 0.0595236 0.331101 0.178571 0.212053C0.305058 0.0855656 0.483629 0.0223217 0.714283 0.0223217C0.944936 0.0223217 1.11979 0.0855656 1.23883 0.212053C1.36532 0.331101 1.42857 0.509671 1.42857 0.747766V3.59373H1.45089L4.654 0.379462C4.77305 0.260415 4.89209 0.17113 5.01114 0.111607C5.13019 0.0520829 5.26411 0.0223217 5.41292 0.0223217C5.6287 0.0223217 5.78123 0.0781246 5.87051 0.189732C5.96724 0.301338 6.00444 0.431546 5.98212 0.580355C5.96724 0.729164 5.89655 0.866812 5.77006 0.993299L2.51115 4.21873L2.52231 3.57141L5.92631 7.03122C6.08256 7.18003 6.16441 7.33628 6.17185 7.49997C6.17929 7.66366 6.12721 7.80131 6.0156 7.91291C5.91143 8.01708 5.75518 8.06916 5.54685 8.06916C5.36828 8.06916 5.22319 8.03196 5.11159 7.95755C5.00742 7.88315 4.88465 7.77526 4.74328 7.6339L1.45089 4.3415H1.42857V7.33256C1.42857 7.56321 1.36904 7.7455 1.24999 7.87943C1.13095 8.00592 0.952377 8.06916 0.714283 8.06916Z" fill="#7A8FAD"/>
<path d="M10.633 8.09148C9.87405 8.09148 9.20813 7.92407 8.63522 7.58925C8.06974 7.25443 7.63076 6.78569 7.31826 6.18301C7.00576 5.57289 6.84951 4.85861 6.84951 4.04016C6.84951 3.4226 6.9388 2.86829 7.11737 2.37722C7.29594 1.87871 7.54891 1.45461 7.87629 1.10491C8.21111 0.747765 8.60917 0.476189 9.07048 0.290178C9.53923 0.0967266 10.0601 0 10.633 0C11.3993 0 12.0653 0.167411 12.6307 0.502231C13.1962 0.82961 13.6352 1.29464 13.9477 1.89731C14.2602 2.49999 14.4164 3.21055 14.4164 4.029C14.4164 4.64656 14.3272 5.20459 14.1486 5.7031C13.97 6.20161 13.7133 6.62944 13.3785 6.98658C13.0511 7.34372 12.6531 7.61902 12.1843 7.81247C11.723 7.99848 11.2059 8.09148 10.633 8.09148ZM10.633 6.86381C11.1166 6.86381 11.5258 6.7522 11.8606 6.52899C12.2029 6.30578 12.4633 5.98212 12.6419 5.55801C12.8279 5.13391 12.9209 4.62796 12.9209 4.04016C12.9209 3.14731 12.72 2.45535 12.3182 1.96428C11.9239 1.47321 11.3621 1.22767 10.633 1.22767C10.1568 1.22767 9.74756 1.33928 9.4053 1.56249C9.06304 1.77827 8.79891 2.09821 8.6129 2.52231C8.43432 2.93898 8.34504 3.44493 8.34504 4.04016C8.34504 4.92557 8.54593 5.61754 8.94771 6.11604C9.3495 6.61455 9.91125 6.86381 10.633 6.86381Z" fill="#7A8FAD"/>
<path d="M16.5834 8.06916C16.3527 8.06916 16.1741 8.00592 16.0476 7.87943C15.9286 7.7455 15.8691 7.56321 15.8691 7.33256V0.83705C15.8691 0.598956 15.9323 0.420385 16.0588 0.301338C16.1853 0.174851 16.3639 0.111607 16.5945 0.111607H19.2842C20.1473 0.111607 20.8132 0.319939 21.282 0.736604C21.7507 1.14583 21.9851 1.72246 21.9851 2.46651C21.9851 2.95014 21.8772 3.3668 21.6615 3.7165C21.4531 4.0662 21.1481 4.33406 20.7463 4.52007C20.3445 4.70608 19.8571 4.79909 19.2842 4.79909L19.3847 4.63168H19.753C20.058 4.63168 20.3222 4.70608 20.5454 4.85489C20.776 5.0037 20.9769 5.23807 21.1481 5.55801L21.9851 7.10934C22.0744 7.26559 22.1153 7.41812 22.1079 7.56693C22.1004 7.71574 22.0446 7.83851 21.9405 7.93523C21.8363 8.02452 21.6838 8.06916 21.4829 8.06916C21.282 8.06916 21.1183 8.02824 20.9918 7.94639C20.8653 7.85711 20.7537 7.72318 20.657 7.54461L19.5298 5.46873C19.3958 5.21575 19.2359 5.04834 19.0499 4.9665C18.8713 4.87721 18.6406 4.83257 18.3579 4.83257H17.2976V7.33256C17.2976 7.56321 17.2381 7.7455 17.1191 7.87943C17 8.00592 16.8214 8.06916 16.5834 8.06916ZM17.2976 3.77231H19.0387C19.5521 3.77231 19.939 3.66814 20.1994 3.45981C20.4673 3.24403 20.6012 2.92409 20.6012 2.49999C20.6012 2.08332 20.4673 1.77083 20.1994 1.56249C19.939 1.34672 19.5521 1.23883 19.0387 1.23883H17.2976V3.77231Z" fill="#7A8FAD"/>
</svg>
