<svg width="12" height="16" viewBox="0 0 12 16" fill="none" xmlns="http://www.w3.org/2000/svg">
<path d="M9.94409 4.60332C9.35921 4.60332 8.9024 4.13165 8.59052 3.63687C8.54547 3.56539 8.49595 3.49643 8.44197 3.42998C8.18123 3.10063 7.82785 2.85361 7.38185 2.68893C6.93585 2.52426 6.42809 2.44192 5.85858 2.44192C5.26162 2.44192 4.73671 2.53455 4.28385 2.71981C3.83098 2.90507 3.48104 3.16581 3.23403 3.50203C2.98701 3.83139 2.8635 4.20877 2.8635 4.63419C2.8635 5.26546 3.12081 5.75263 3.63543 6.09571C4.15691 6.43193 4.80533 6.69267 5.58069 6.87793L7.01133 7.25875C8.25327 7.56752 9.27908 8.04097 10.0887 8.67909C10.9053 9.31722 11.3135 10.247 11.3135 11.4683C11.3135 12.3123 11.094 13.0671 10.6548 13.7326C10.2225 14.3914 9.58785 14.906 8.75074 15.2765C7.92049 15.647 6.93242 15.8323 5.78653 15.8323C4.67496 15.8323 3.71091 15.6539 2.89438 15.2971C2.08471 14.9403 1.44658 14.436 0.979997 13.7841C0.737201 13.4398 0.550864 13.0611 0.420986 12.648C0.223969 12.0212 0.762912 11.458 1.41988 11.458C2.01427 11.458 2.47418 11.9427 2.76808 12.4593C2.83125 12.5704 2.90423 12.6757 2.98701 12.7755C3.28892 13.1323 3.68003 13.3999 4.16034 13.5783C4.64751 13.7567 5.18615 13.8424 5.77624 13.8356C6.40751 13.8356 6.97359 13.7361 7.47448 13.5371C7.97538 13.3381 8.36649 13.0568 8.64781 12.6931C8.92914 12.3295 9.0698 11.9075 9.0698 11.4272C9.0698 11.0155 8.95315 10.6655 8.71986 10.3773C8.48657 10.0891 8.1675 9.85585 7.76267 9.67745C7.35784 9.49905 6.85694 9.33094 6.25998 9.17313L4.4897 8.70997C3.24089 8.36689 2.28027 7.87629 1.60783 7.23816C0.942258 6.59317 0.612902 5.76635 0.619764 4.7577C0.619764 3.91373 0.846196 3.16581 1.29906 2.51396C1.75879 1.86211 2.39005 1.36122 3.19286 1.01128C4.00252 0.654475 4.90825 0.476074 5.91004 0.476074C6.90497 0.476074 7.79355 0.654475 8.57577 1.01128C9.36485 1.36122 9.97896 1.85182 10.4181 2.48309C10.6365 2.78891 10.8031 3.11449 10.9179 3.45983C11.1195 4.06655 10.5834 4.60332 9.94409 4.60332Z" fill="#00C696"/>
</svg>
